<svg xmlns="http://www.w3.org/2000/svg" width="955.18" height="59.563" viewBox="0 0 955.18 59.563"><title>Macaw Challenge Accepted</title><path d="M343.558.279l-3.392,20.162c-3,16.133-3.494,24.8-11.472,24.888-3.473.039-4.53-2.193-3.733-7.188L331.725.279,313.587.258l-6.379,36.516c-1.079,5.52-4.04,8.454-7.947,8.454-4.913,0-4.72-3.758-4.162-7.4l4.021-23.406C300.906,4.7,297.275,0,287.543,0L277.105.043,275,12.075l3.781,0c2.122,0,2.429.855,2.094,2.732l-3.856,23.7c-2.232,12.921,3.259,20.967,16.77,20.967,7.146,0,13.4-2.1,18.424-7.509,2.444,4.329,7.523,7.668,15.938,7.51,20.389-.379,25.491-8.53,29.943-35.807.569-3.489,3.723-23.387,3.723-23.387ZM151.963,0H131.434C107.052.1,95,16.915,95,39.359c0,11.055,4.288,20.074,17.637,20.074,6.289,0,12.973-2.1,16.172-7.409.331,4.423,2.58,7.409,9.309,7.409h10.705l1.986-11.706H147.1c-2.463,0-2.78-.629-2.449-2.508ZM128.5,36.6c-1.642,7.143-4.594,9.833-9.008,9.833-4.522,0-6.5-3.852-6.5-8.605,0-8.846,3.868-24.981,14.459-24.981l5.009-.07ZM80.746,45.018l4.079-26.053C87.032,6.252,82.876.009,72.284.009,64.672.009,59.367,3.214,55.4,9.074,53.961,2.33,48.229.009,42.6.009A19.836,19.836,0,0,0,25.978,8.741c.37-1.653-.358-8.732-11.1-8.732L3.767,0,1.7,12.043l3.641.017c2.122,0,2.5.944,2.16,2.823l-.132.752L0,59.236H18.049l5.914-33.947C25.176,19.1,27.483,14.6,32.448,14.6c4.413,0,4.854,3.206,3.971,8.07l-6.19,36.492H48.284L54,25.191c1.213-7.186,4.263-10.7,8.345-10.7,4.965,0,4.524,3.98,3.972,8.07L62.548,46.1c-1.441,9.154,1.878,13.358,10.808,13.3l11.358,0,2-11.633-4.286,0C80.335,47.77,80.415,46.677,80.746,45.018ZM158,37.351c0,14.584,8.489,22.212,22.9,22.212a72.949,72.949,0,0,0,17.816-1.856l2.4-14.675a42.115,42.115,0,0,1-15.2,2.244c-6.143-.166-8.7-4.088-8.7-10.337,0-11.953,4.743-19.733,18.291-19.638l10,.024L208,.563s-4.161,0-13,.008C175.429.589,158,11.364,158,37.351ZM266,.563H245.417C221.047.665,209,17.355,209,39.635c0,10.975,4.289,19.928,17.632,19.928,6.285,0,12.963-2.088,16.161-7.355.331,4.39,2.966,7.34,9.692,7.34l10.312.015,1.986-11.621H261.07c-2.462,0-2.779-.625-2.447-2.49ZM242.484,36.9c-1.642,7.091-4.593,9.762-9,9.762-4.521,0-6.5-3.825-6.5-8.543,0-8.781,3.866-24.8,14.452-24.8l5.006-.069Z" fill="#181818" fill-rule="evenodd"/><path d="M662.8,27.363q0,2.561.48,7.2.159,1.44.2,2.12h-.16l-2.6-5.68-7.24-13.56h-5.64v26.12h5.24v-10q0-1.56-.16-3.58t-.36-3.86q-.16-1.32-.2-1.8h.16l2.64,5.68,7.24,13.56H668V17.443h-5.2Z" fill="#54544d"/><polygon points="626.998 32.363 636.078 32.363 636.078 27.763 626.998 27.763 626.998 22.043 637.678 22.043 637.678 17.443 621.518 17.443 621.518 43.563 638.078 43.563 638.078 38.963 626.998 38.963 626.998 32.363" fill="#54544d"/><polygon points="527.879 27.643 518.359 27.643 518.359 17.443 512.879 17.443 512.879 43.563 518.359 43.563 518.359 32.443 527.879 32.443 527.879 43.563 533.359 43.563 533.359 17.443 527.879 17.443 527.879 27.643" fill="#54544d"/><path d="M549.159,17.443l-8.32,26.12h5.6l1.76-6.52h8.2l1.76,6.52h5.8l-8.28-26.12Zm.2,15.36.72-2.68q.921-3.32,2.12-8.48h.16l.76,2.96q.96,3.76,1.44,5.52l.72,2.68Z" fill="#54544d"/><path d="M689.318,33.523h4.519V38.4a4.021,4.021,0,0,1-1.36.64,6.227,6.227,0,0,1-1.719.24,6.93,6.93,0,0,1-5.641-2.3,9.936,9.936,0,0,1-1.92-6.54,9.633,9.633,0,0,1,1.96-6.38,6.445,6.445,0,0,1,5.2-2.34,6.523,6.523,0,0,1,2.74.54,8.76,8.76,0,0,1,2.3,1.58l2.88-3.52a11.062,11.062,0,0,0-8.12-3.36,12.6,12.6,0,0,0-6.38,1.64,11.8,11.8,0,0,0-4.54,4.74,15.1,15.1,0,0,0-1.68,7.3,15.015,15.015,0,0,0,1.64,7.26,11.125,11.125,0,0,0,4.5,4.58,13.354,13.354,0,0,0,6.5,1.56,13.129,13.129,0,0,0,4.84-.88,10.9,10.9,0,0,0,3.68-2.28V29.043h-9.4Z" fill="#54544d"/><path d="M496.12,39.283a5.717,5.717,0,0,1-4.82-2.36,10.533,10.533,0,0,1-1.78-6.48,11.506,11.506,0,0,1,.86-4.62,6.977,6.977,0,0,1,2.38-3.04,5.874,5.874,0,0,1,3.44-1.06,5.767,5.767,0,0,1,2.5.54,8.443,8.443,0,0,1,2.22,1.58l2.92-3.52a11.751,11.751,0,0,0-3.42-2.42,9.986,9.986,0,0,0-4.34-.94,11.893,11.893,0,0,0-6.12,1.64,11.656,11.656,0,0,0-4.44,4.74,15.391,15.391,0,0,0-1.64,7.3,15.316,15.316,0,0,0,1.6,7.26,11.081,11.081,0,0,0,4.34,4.58,12.108,12.108,0,0,0,6.1,1.56,10.51,10.51,0,0,0,8.36-3.84l-2.92-3.44A6.819,6.819,0,0,1,496.12,39.283Z" fill="#54544d"/><polygon points="601.959 17.443 596.479 17.443 596.479 43.563 612.439 43.563 612.439 38.963 601.959 38.963 601.959 17.443" fill="#54544d"/><polygon points="576.919 17.443 571.439 17.443 571.439 43.563 587.399 43.563 587.399 38.963 576.919 38.963 576.919 17.443" fill="#54544d"/><polygon points="879.86 22.043 887.141 22.043 887.141 43.563 892.62 43.563 892.62 22.043 899.94 22.043 899.94 17.443 879.86 17.443 879.86 22.043" fill="#54544d"/><path d="M870.7,19.383a12.9,12.9,0,0,0-7.5-1.94h-8.72v26.12h5.48v-9.12h3.4a11.541,11.541,0,0,0,7.28-2.2,7.741,7.741,0,0,0,2.84-6.52Q873.48,21.324,870.7,19.383Zm-7.7,10.7h-3.04V21.8h2.88a6.939,6.939,0,0,1,3.98.92,3.419,3.419,0,0,1,1.3,3Q868.12,30.084,863,30.083Z" fill="#54544d"/><polygon points="914.1 32.363 923.18 32.363 923.18 27.763 914.1 27.763 914.1 22.043 924.78 22.043 924.78 17.443 908.62 17.443 908.62 43.563 925.18 43.563 925.18 38.963 914.1 38.963 914.1 32.363" fill="#54544d"/><path d="M951.76,20.683q-3.42-3.24-9.58-3.24h-7.24v26.12h7.56q5.92,0,9.3-3.34t3.38-9.82Q955.18,23.923,951.76,20.683Zm-9.9,18.44h-1.44V21.883h1.44a7.671,7.671,0,0,1,5.7,2q1.98,2,1.98,6.52Q949.54,39.123,941.86,39.123Z" fill="#54544d"/><polygon points="833.64 32.363 842.72 32.363 842.72 27.763 833.64 27.763 833.64 22.043 844.32 22.043 844.32 17.443 828.16 17.443 828.16 43.563 844.72 43.563 844.72 38.963 833.64 38.963 833.64 32.363" fill="#54544d"/><path d="M752.557,17.443l-8.32,26.12h5.6l1.76-6.52h8.2l1.76,6.52h5.8l-8.28-26.12Zm.2,15.36.72-2.68q.92-3.32,2.12-8.48h.16l.76,2.96q.96,3.76,1.44,5.52l.72,2.68Z" fill="#54544d"/><path d="M785.14,39.283a5.72,5.72,0,0,1-4.82-2.36,10.533,10.533,0,0,1-1.78-6.48,11.523,11.523,0,0,1,.86-4.62,6.992,6.992,0,0,1,2.38-3.04,5.876,5.876,0,0,1,3.44-1.06,5.764,5.764,0,0,1,2.5.54,8.443,8.443,0,0,1,2.22,1.58l2.92-3.52a11.751,11.751,0,0,0-3.42-2.42,9.983,9.983,0,0,0-4.34-.94,11.9,11.9,0,0,0-6.12,1.64,11.663,11.663,0,0,0-4.44,4.74,15.4,15.4,0,0,0-1.64,7.3,15.328,15.328,0,0,0,1.6,7.26,11.087,11.087,0,0,0,4.34,4.58,12.111,12.111,0,0,0,6.1,1.56,10.507,10.507,0,0,0,8.36-3.84l-2.92-3.44A6.818,6.818,0,0,1,785.14,39.283Z" fill="#54544d"/><polygon points="714.237 32.363 723.317 32.363 723.317 27.763 714.237 27.763 714.237 22.043 724.917 22.043 724.917 17.443 708.757 17.443 708.757 43.563 725.317 43.563 725.317 38.963 714.237 38.963 714.237 32.363" fill="#54544d"/><path d="M811.4,39.283a5.718,5.718,0,0,1-4.82-2.36,10.533,10.533,0,0,1-1.78-6.48,11.523,11.523,0,0,1,.86-4.62,6.984,6.984,0,0,1,2.38-3.04,5.874,5.874,0,0,1,3.44-1.06,5.764,5.764,0,0,1,2.5.54,8.443,8.443,0,0,1,2.22,1.58l2.92-3.52a11.751,11.751,0,0,0-3.42-2.42,9.986,9.986,0,0,0-4.34-.94,11.9,11.9,0,0,0-6.12,1.64,11.656,11.656,0,0,0-4.44,4.74,15.4,15.4,0,0,0-1.64,7.3,15.316,15.316,0,0,0,1.6,7.26,11.087,11.087,0,0,0,4.34,4.58,12.111,12.111,0,0,0,6.1,1.56,10.509,10.509,0,0,0,8.36-3.84l-2.92-3.44A6.818,6.818,0,0,1,811.4,39.283Z" fill="#54544d"/></svg>